<svg width="422" height="190" viewBox="0 0 422 190" fill="none" xmlns="http://www.w3.org/2000/svg">
<g filter="url(#filter0_d_56_445)">
<path d="M59.5948 63.7016C58.6988 62.154 55.3592 61.3802 49.576 61.3802C42.0009 61.3802 36.2585 63.946 32.3487 69.0775C28.439 74.209 26.4841 81.6213 26.4841 91.3142C26.4841 111.433 34.0185 121.493 49.0873 121.493C49.3317 121.493 50.3906 121.493 52.264 121.493C54.2189 121.493 56.0516 121.248 57.7621 120.759C59.4726 120.189 60.4908 119.619 60.8166 119.049C61.1424 118.479 61.3053 117.583 61.3053 116.361V106.587L73.7676 107.442V128.579C67.4143 131.919 59.3504 133.588 49.576 133.588C37.1137 133.588 27.5837 130.086 20.986 123.081C14.4698 116.076 11.2116 105.65 11.2116 91.8029C11.2116 84.1463 12.3113 77.4672 14.5105 71.7655C16.7097 66.0637 19.6828 61.6245 23.4296 58.4479C30.7604 52.3389 39.4759 49.2844 49.576 49.2844C57.7214 49.2844 65.3779 50.9542 72.5458 54.2938V75.0643L60.0835 75.9196V66.3896C60.0835 65.1678 59.9206 64.2718 59.5948 63.7016ZM91.308 118.316V58.8144C91.308 57.5112 91.0637 56.6152 90.5749 56.1265C90.1677 55.6377 89.3939 55.3527 88.2535 55.2712L83.9772 55.0268V44.8859H105.725V77.7523C109.961 71.7247 115.907 68.711 123.563 68.711C129.754 68.711 134.519 70.5029 137.858 74.0869C141.279 77.5893 142.99 82.8838 142.99 89.9702V121.859L149.954 122.226V132H120.875V122.714L124.907 122.348C126.129 122.185 127.025 121.859 127.595 121.37C128.166 120.8 128.451 119.782 128.451 118.316V93.1469C128.451 88.9113 127.758 85.6532 126.374 83.3725C125.07 81.0918 122.464 79.9515 118.554 79.9515C114.726 79.9515 111.631 81.1733 109.268 83.6169C106.988 85.979 105.847 88.8706 105.847 92.2916V121.859L112.812 122.226V132H83.7329V122.714L87.7648 122.348C88.9866 122.185 89.8826 121.859 90.4528 121.37C91.0229 120.8 91.308 119.782 91.308 118.316ZM211.974 72.9873V118.438C211.974 119.741 212.177 120.637 212.585 121.126C213.073 121.615 213.888 121.9 215.028 121.981L218.938 122.226V132H199.511V124.914L199.145 124.791C195.072 130.656 189.493 133.588 182.406 133.588C174.098 133.588 167.948 130.941 163.957 125.647C159.966 120.352 157.97 113.103 157.97 103.899C157.97 92.8211 160.658 84.187 166.034 77.9966C171.41 71.8062 179.474 68.711 190.226 68.711C197.149 68.711 204.399 70.1364 211.974 72.9873ZM197.801 112.573V80.9289C195.52 79.87 192.384 79.3406 188.393 79.3406C182.936 79.3406 178.985 81.5398 176.542 85.9383C174.098 90.3368 172.876 96.1606 172.876 103.41C172.876 116.605 177.112 123.203 185.583 123.203C189.167 123.203 192.099 122.144 194.38 120.026C196.661 117.827 197.801 115.343 197.801 112.573ZM234.013 118.316V84.4721C234.013 83.1689 233.768 82.2729 233.28 81.7842C232.872 81.214 232.099 80.8882 230.958 80.8067L225.827 80.4402V70.5437H246.475V79.7071C247.941 76.5305 250.222 73.924 253.317 71.8876C256.412 69.7699 259.956 68.711 263.947 68.711C268.019 68.711 271.889 69.6069 275.554 71.3989V89.6037L264.191 90.4589V84.8387C264.191 83.2096 263.784 82.1914 262.969 81.7842C262.073 81.3769 260.974 81.1733 259.671 81.1733C256.412 81.1733 253.724 82.3544 251.607 84.7165C249.57 86.9972 248.552 89.9295 248.552 93.5134V121.859L259.182 122.348V132H226.438V122.714L230.47 122.348C231.691 122.185 232.587 121.859 233.158 121.37C233.728 120.8 234.013 119.782 234.013 118.316ZM282.141 80.4402V70.5437H302.789V78.4853C307.351 71.9691 313.582 68.711 321.483 68.711C329.465 68.711 334.841 71.9691 337.611 78.4853C342.172 71.9691 348.362 68.711 356.182 68.711C362.047 68.711 366.567 70.5029 369.744 74.0869C372.921 77.5893 374.509 82.8838 374.509 89.9702V121.859L381.473 122.226V132H352.394V122.714L356.426 122.348C357.648 122.185 358.503 121.859 358.992 121.37C359.562 120.8 359.888 119.823 359.97 118.438V93.1469C359.97 88.667 359.44 85.3681 358.381 83.2503C357.404 81.0511 355.042 79.9515 351.295 79.9515C347.548 79.9515 344.656 81.0918 342.62 83.3725C340.665 85.6532 339.688 88.7077 339.688 92.536V121.859L346.408 122.226V132H317.573V122.714L321.605 122.348C322.827 122.185 323.723 121.859 324.293 121.37C324.863 120.8 325.148 119.782 325.148 118.316V93.1469C325.148 88.667 324.619 85.3681 323.56 83.2503C322.583 81.0511 320.18 79.9515 316.351 79.9515C312.605 79.9515 309.754 81.1326 307.799 83.4947C305.844 85.8568 304.867 88.7891 304.867 92.2916V121.859L311.464 122.226V132H282.63V122.714L286.662 122.348C287.884 122.185 288.78 121.859 289.35 121.37C289.92 120.8 290.205 119.782 290.205 118.316H290.327V84.5943C290.327 83.2096 290.083 82.2729 289.594 81.7842C289.187 81.214 288.413 80.8882 287.273 80.8067L282.141 80.4402Z" fill="white"/>
<g filter="url(#filter1_d_56_445)">
<line x1="31.9937" y1="153.483" x2="390.006" y2="153.483" stroke="white" stroke-width="10"/>
</g>
</g>
<defs>
<filter id="filter0_d_56_445" x="0.511669" y="34.1859" width="420.195" height="154.997" filterUnits="userSpaceOnUse" color-interpolation-filters="sRGB">
<feFlood flood-opacity="0" result="BackgroundImageFix"/>
<feColorMatrix in="SourceAlpha" type="matrix" values="0 0 0 0 0 0 0 0 0 0 0 0 0 0 0 0 0 0 127 0" result="hardAlpha"/>
<feOffset dx="10" dy="10"/>
<feGaussianBlur stdDeviation="10.35"/>
<feComposite in2="hardAlpha" operator="out"/>
<feColorMatrix type="matrix" values="0 0 0 0 0 0 0 0 0 0 0 0 0 0 0 0 0 0 0.6 0"/>
<feBlend mode="normal" in2="BackgroundImageFix" result="effect1_dropShadow_56_445"/>
<feBlend mode="normal" in="SourceGraphic" in2="effect1_dropShadow_56_445" result="shape"/>
</filter>
<filter id="filter1_d_56_445" x="0.493652" y="115.983" width="421.013" height="73" filterUnits="userSpaceOnUse" color-interpolation-filters="sRGB">
<feFlood flood-opacity="0" result="BackgroundImageFix"/>
<feColorMatrix in="SourceAlpha" type="matrix" values="0 0 0 0 0 0 0 0 0 0 0 0 0 0 0 0 0 0 127 0" result="hardAlpha"/>
<feOffset dy="-1"/>
<feGaussianBlur stdDeviation="15.75"/>
<feComposite in2="hardAlpha" operator="out"/>
<feColorMatrix type="matrix" values="0 0 0 0 1 0 0 0 0 1 0 0 0 0 1 0 0 0 0.63 0"/>
<feBlend mode="normal" in2="BackgroundImageFix" result="effect1_dropShadow_56_445"/>
<feBlend mode="normal" in="SourceGraphic" in2="effect1_dropShadow_56_445" result="shape"/>
</filter>
</defs>
</svg>
