<svg width="172" height="42" viewBox="0 0 172 42" fill="none" xmlns="http://www.w3.org/2000/svg">
<g filter="url(#filter0_d_56_453)">
<path d="M34.416 2.40625C35.7103 2.40625 36.3574 2.73438 36.3574 3.39062C36.3574 3.6276 36.0521 4.33854 35.4414 5.52344C34.8307 6.70833 34.4251 7.61979 34.2246 8.25781L33.582 10.4727C32.2878 14.8568 31.4857 17.5273 31.1758 18.4844L30.9434 19.1953C30.6699 19.7878 30.2188 20.2526 29.5898 20.5898C29.2982 20.7448 28.9564 20.8223 28.5645 20.8223C28.1725 20.8223 27.8353 20.6855 27.5527 20.4121C27.2702 20.1387 26.9831 19.6829 26.6914 19.0449C26.4089 18.4069 25.7982 16.7025 24.8594 13.9316C23.9297 11.1517 23.4238 9.76172 23.3418 9.76172L23.1094 10.1719L22.8906 10.8965C22.6992 11.5436 22.5488 12.0358 22.4395 12.373L21.7559 14.5469C20.8717 17.3724 20.3066 19.013 20.0605 19.4688C19.8145 19.9154 19.5182 20.2708 19.1719 20.5352C18.8255 20.7995 18.502 20.9316 18.2012 20.9316C17.3262 20.9316 16.6517 20.5169 16.1777 19.6875C16.0137 19.4049 15.1523 16.7663 13.5938 11.7715L13.3613 11.0469C12.9147 9.60677 12.6094 8.63607 12.4453 8.13477L12.2129 7.42383C11.9121 6.56706 11.4928 5.72852 10.9551 4.9082C10.4264 4.07878 10.1621 3.54557 10.1621 3.30859C10.1621 3.07161 10.2943 2.84375 10.5586 2.625C10.832 2.39714 11.2057 2.2832 11.6797 2.2832C13.849 2.2832 15.3665 2.58398 16.2324 3.18555C16.8431 3.60482 17.1484 4.47526 17.1484 5.79688L17.1211 6.38477C17.1029 6.78581 17.0938 7.20052 17.0938 7.62891C17.0938 8.66797 17.3444 9.95768 17.8457 11.498C18.347 13.0293 18.8027 13.7949 19.2129 13.7949L19.418 13.6172C19.8919 12.9883 20.2884 11.9583 20.6074 10.5273C20.9264 9.09635 21.0859 7.72917 21.0859 6.42578L21.0176 5.85156L20.9766 5.30469C20.9766 4.2474 21.332 3.49089 22.043 3.03516C22.4076 2.79818 23.082 2.67969 24.0664 2.67969C25.0599 2.67969 25.8073 3.0625 26.3086 3.82812C26.6458 4.33854 26.8145 5.09049 26.8145 6.08398C26.8145 7.07747 27.457 9.40169 28.7422 13.0566C28.9336 13.6126 29.0749 13.8906 29.166 13.8906C29.7585 13.4167 30.1641 12.8105 30.3828 12.0723C31.0391 9.88477 31.3672 8.24414 31.3672 7.15039C31.3672 6.87695 31.349 6.48958 31.3125 5.98828L31.2578 5.42773L31.1484 4.92188L31.0391 4.48438C31.0391 3.78255 31.3945 3.26302 32.1055 2.92578C32.8255 2.57943 33.5957 2.40625 34.416 2.40625ZM44 9.33789H43.6035C43.0293 9.33789 42.4779 9.63867 41.9492 10.2402C41.4297 10.8327 41.1699 11.5436 41.1699 12.373V12.5918C41.1699 12.929 41.3568 13.0977 41.7305 13.0977L41.8672 13.125H42.8379L42.9062 13.1113L45.1895 12.9746C45.3262 12.9473 45.4173 12.9336 45.4629 12.9336C45.9277 12.9336 46.1602 12.6921 46.1602 12.209V11.7578C46.1602 11.1471 45.9414 10.5911 45.5039 10.0898C45.0664 9.58854 44.5651 9.33789 44 9.33789ZM41.334 15.8457C41.334 16.7572 41.7624 17.5456 42.6191 18.2109C43.2572 18.7122 44.0684 18.9629 45.0527 18.9629C45.4993 18.9629 46.1602 18.8353 47.0352 18.5801C47.9193 18.3249 48.4297 18.1973 48.5664 18.1973C48.9766 18.1973 49.1816 18.4206 49.1816 18.8672C49.1816 19.3958 48.6348 19.9336 47.541 20.4805C46.4564 21.0182 45.3307 21.2871 44.1641 21.2871H43.5625C43.5443 21.2871 43.5215 21.2871 43.4941 21.2871C42.7559 21.2871 42.0039 21.1367 41.2383 20.8359C39.7253 20.2526 38.6497 19.2318 38.0117 17.7734C37.5742 16.7708 37.3555 15.8184 37.3555 14.916V14.2871C37.3555 13.3665 37.515 12.4779 37.834 11.6211C38.4355 10.0078 39.4974 8.8457 41.0195 8.13477C41.931 7.71549 42.888 7.50586 43.8906 7.50586H44.2051C45.6908 7.50586 46.944 7.96615 47.9648 8.88672C48.5026 9.37891 48.9128 9.97135 49.1953 10.6641C49.487 11.3568 49.6328 12.0632 49.6328 12.7832C49.6328 13.4941 49.2819 13.9635 48.5801 14.1914C47.5957 14.5104 45.7728 14.6699 43.1113 14.6699C42.4004 14.6699 41.9264 14.7611 41.6895 14.9434C41.4525 15.1165 41.334 15.4173 41.334 15.8457ZM51.6016 2.03711C51.6016 1.70898 51.8385 1.47201 52.3125 1.32617C53.5977 0.934245 54.8281 0.738281 56.0039 0.738281C56.6966 0.738281 57.0794 1.03906 57.1523 1.64062C57.1706 1.78646 57.1797 4.22917 57.1797 8.96875C57.1797 13.7083 57.2572 16.5111 57.4121 17.377C57.5762 18.2337 57.7949 18.8171 58.0684 19.127C58.7611 19.9108 59.1074 20.321 59.1074 20.3574C59.1074 20.7949 57.8861 21.0137 55.4434 21.0137H55.1699L54.8828 21C53.4245 21 52.5495 20.9635 52.2578 20.8906C51.9753 20.8177 51.834 20.6491 51.834 20.3848C51.834 20.1113 52.0573 19.7012 52.5039 19.1543C52.9505 18.5983 53.2331 18.015 53.3516 17.4043C53.4701 16.7845 53.5293 14.5059 53.5293 10.5684C53.5293 6.63086 53.4655 4.44792 53.3379 4.01953C53.2103 3.58203 52.8867 3.19922 52.3672 2.87109C51.8568 2.53385 51.6016 2.25586 51.6016 2.03711ZM72.1504 18.0879C72.5059 18.0879 72.6836 18.334 72.6836 18.8262C72.6836 19.3092 72.1094 19.8379 70.9609 20.4121C69.8125 20.9863 68.6914 21.2734 67.5977 21.2734H67.2832C66.3809 21.2734 65.5241 21.0957 64.7129 20.7402C63.127 20.0475 62.0332 18.8672 61.4316 17.1992C61.14 16.3789 60.9941 15.5632 60.9941 14.752V14.4238C60.9941 12.5827 61.6003 10.9876 62.8125 9.63867C63.4232 8.96419 64.1615 8.44922 65.0273 8.09375C65.9023 7.72917 66.8001 7.54688 67.7207 7.54688C69.4525 7.54688 70.7878 7.80664 71.7266 8.32617C72.2826 8.63607 72.5605 9.14193 72.5605 9.84375C72.5605 11.1107 72.1595 11.7441 71.3574 11.7441C70.8652 11.7441 70.2819 11.3841 69.6074 10.6641C68.9421 9.94401 68.2357 9.58398 67.4883 9.58398C66.5859 9.58398 65.8431 10.1445 65.2598 11.2656C64.9316 11.9036 64.763 12.9108 64.7539 14.2871C64.7539 14.3053 64.7539 14.3236 64.7539 14.3418C64.7539 15.6634 65.0957 16.7526 65.7793 17.6094C66.472 18.4753 67.3516 18.9082 68.418 18.9082C69.0104 18.9082 69.735 18.7715 70.5918 18.498C71.4577 18.2246 71.9772 18.0879 72.1504 18.0879ZM81.3379 9.2832H81.0781C80.2943 9.2832 79.6517 9.72526 79.1504 10.6094C78.6582 11.4935 78.4121 12.5508 78.4121 13.7812V14.5469C78.4121 15.9323 78.6992 17.1035 79.2734 18.0605C79.8477 19.0176 80.5358 19.4961 81.3379 19.4961H81.5977C82.2995 19.4961 82.9102 19.1406 83.4297 18.4297C83.9583 17.7096 84.2227 16.7526 84.2227 15.5586L84.25 15.2715L84.2637 14.6973V14.5469L84.25 14.3965V14.1094C84.2318 13.9089 84.2227 13.763 84.2227 13.6719C84.2227 12.4596 83.9355 11.4251 83.3613 10.5684C82.7871 9.71159 82.1126 9.2832 81.3379 9.2832ZM81.3516 7.46484H82.0352C82.8464 7.46484 83.6803 7.65625 84.5371 8.03906C86.1686 8.76823 87.2897 9.95312 87.9004 11.5938C88.2103 12.4414 88.3652 13.3073 88.3652 14.1914V14.4375C88.3652 15.3854 88.1738 16.3151 87.791 17.2266C87.4082 18.138 86.8932 18.8945 86.2461 19.4961C84.8971 20.7174 83.3477 21.3281 81.5977 21.3281C81.4609 21.3281 81.3242 21.3236 81.1875 21.3145C80.3125 21.3145 79.4512 21.1413 78.6035 20.7949C77.765 20.4395 77.0768 19.9701 76.5391 19.3867C75.3815 18.1107 74.8027 16.5111 74.8027 14.5879V14.3555L74.8164 14.123C74.8255 13.2754 74.985 12.4368 75.2949 11.6074C75.8965 10.0215 76.9993 8.85026 78.6035 8.09375C79.5059 7.67448 80.4219 7.46484 81.3516 7.46484ZM113.85 19.7422C113.85 20.5898 112.642 21.0137 110.227 21.0137C109.434 21.0137 108.887 20.9225 108.586 20.7402C108.285 20.5488 108.135 20.2207 108.135 19.7559L108.312 18.8809C108.486 17.9603 108.572 16.5612 108.572 14.6836C108.572 12.7969 108.413 11.5482 108.094 10.9375C107.775 10.3177 107.146 10.0078 106.207 10.0078C105.888 10.0078 105.542 10.1354 105.168 10.3906C104.794 10.6367 104.512 10.974 104.32 11.4023C104.138 11.8307 104.047 12.9382 104.047 14.7246C104.047 16.502 104.097 17.5592 104.197 17.8965C104.307 18.2337 104.544 18.6439 104.908 19.127C105.273 19.6009 105.455 19.9746 105.455 20.248C105.455 20.5124 105.277 20.7038 104.922 20.8223C104.576 20.9408 103.655 21 102.16 21C100.665 21 99.7995 20.9225 99.5625 20.7676C99.3346 20.6126 99.2207 20.3301 99.2207 19.9199C99.2207 19.7832 99.3711 19.5189 99.6719 19.127C99.9818 18.7259 100.178 18.3613 100.26 18.0332C100.351 17.7051 100.396 16.6523 100.396 14.875C100.396 13.0977 100.251 11.8626 99.959 11.1699C99.6673 10.4772 99.1341 10.1309 98.3594 10.1309C97.5846 10.1309 96.9284 10.4863 96.3906 11.1973C96.0169 11.6895 95.8301 12.373 95.8301 13.248C95.8301 14.123 95.8711 15.1439 95.9531 16.3105C96.0352 17.4772 96.1263 18.2975 96.2266 18.7715C96.3268 19.2454 96.377 19.6465 96.377 19.9746C96.377 20.3027 96.2311 20.5579 95.9395 20.7402C95.6478 20.9134 94.9551 21 93.8613 21C91.7467 21 90.6895 20.6172 90.6895 19.8516C90.6895 19.6055 90.8945 19.2546 91.3047 18.7988C91.7148 18.334 91.9473 18.0013 92.002 17.8008C92.0566 17.5911 92.084 16.5885 92.084 14.793C92.084 12.9974 91.9655 11.7578 91.7285 11.0742C91.6647 10.901 91.4824 10.582 91.1816 10.1172C90.89 9.64323 90.7441 9.2832 90.7441 9.03711C90.7441 8.69076 91.0358 8.43099 91.6191 8.25781C92.6582 7.94792 93.5833 7.79297 94.3945 7.79297C94.6589 7.79297 94.9779 7.98893 95.3516 8.38086C95.7253 8.76367 95.9622 8.95508 96.0625 8.95508L96.5 8.70898C97.0378 8.39909 97.3841 8.20768 97.5391 8.13477C98.3776 7.75195 99.1706 7.56055 99.918 7.56055C100.665 7.56055 101.221 7.64258 101.586 7.80664C101.951 7.9707 102.347 8.20768 102.775 8.51758C103.204 8.82747 103.523 8.98242 103.732 8.98242C103.951 8.98242 104.544 8.75911 105.51 8.3125C106.476 7.86589 107.378 7.64258 108.217 7.64258C109.73 7.64258 110.842 8.3125 111.553 9.65234C112.027 10.5273 112.264 12.8379 112.264 16.584C112.264 17.5319 112.314 18.1152 112.414 18.334C112.523 18.5436 112.788 18.7988 113.207 19.0996C113.635 19.3913 113.85 19.6055 113.85 19.7422ZM122.176 9.33789H121.779C121.205 9.33789 120.654 9.63867 120.125 10.2402C119.605 10.8327 119.346 11.5436 119.346 12.373V12.5918C119.346 12.929 119.533 13.0977 119.906 13.0977L120.043 13.125H121.014L121.082 13.1113L123.365 12.9746C123.502 12.9473 123.593 12.9336 123.639 12.9336C124.104 12.9336 124.336 12.6921 124.336 12.209V11.7578C124.336 11.1471 124.117 10.5911 123.68 10.0898C123.242 9.58854 122.741 9.33789 122.176 9.33789ZM119.51 15.8457C119.51 16.7572 119.938 17.5456 120.795 18.2109C121.433 18.7122 122.244 18.9629 123.229 18.9629C123.675 18.9629 124.336 18.8353 125.211 18.5801C126.095 18.3249 126.605 18.1973 126.742 18.1973C127.152 18.1973 127.357 18.4206 127.357 18.8672C127.357 19.3958 126.811 19.9336 125.717 20.4805C124.632 21.0182 123.507 21.2871 122.34 21.2871H121.738C121.72 21.2871 121.697 21.2871 121.67 21.2871C120.932 21.2871 120.18 21.1367 119.414 20.8359C117.901 20.2526 116.826 19.2318 116.188 17.7734C115.75 16.7708 115.531 15.8184 115.531 14.916V14.2871C115.531 13.3665 115.691 12.4779 116.01 11.6211C116.611 10.0078 117.673 8.8457 119.195 8.13477C120.107 7.71549 121.064 7.50586 122.066 7.50586H122.381C123.867 7.50586 125.12 7.96615 126.141 8.88672C126.678 9.37891 127.089 9.97135 127.371 10.6641C127.663 11.3568 127.809 12.0632 127.809 12.7832C127.809 13.4941 127.458 13.9635 126.756 14.1914C125.771 14.5104 123.949 14.6699 121.287 14.6699C120.576 14.6699 120.102 14.7611 119.865 14.9434C119.628 15.1165 119.51 15.4173 119.51 15.8457ZM137.475 9.65234C137.074 9.37891 136.873 9.11458 136.873 8.85938C136.873 8.59505 137.115 8.33529 137.598 8.08008C138.081 7.82487 138.382 7.61979 138.5 7.46484C138.618 7.3099 138.805 6.88151 139.061 6.17969C139.325 5.47786 139.603 4.9401 139.895 4.56641C140.186 4.18359 140.569 3.99219 141.043 3.99219C141.517 3.99219 141.859 4.18359 142.068 4.56641C142.16 4.73958 142.278 5.14974 142.424 5.79688C142.579 6.44401 142.761 6.85872 142.971 7.04102C143.18 7.22331 143.581 7.42839 144.174 7.65625C144.766 7.875 145.072 7.98893 145.09 7.99805C145.4 8.24414 145.555 8.53581 145.555 8.87305C145.555 9.16471 145.122 9.42448 144.256 9.65234C143.399 9.88021 142.848 10.2266 142.602 10.6914C142.365 11.1562 142.246 12.3184 142.246 14.1777C142.246 16.0371 142.387 17.2448 142.67 17.8008C142.962 18.3568 143.436 18.6348 144.092 18.6348L144.584 18.5938C144.803 18.5755 145.04 18.5664 145.295 18.5664C145.851 18.5664 146.129 18.776 146.129 19.1953C146.129 19.7331 145.792 20.1615 145.117 20.4805C144.151 20.9362 143.13 21.1641 142.055 21.1641C141.553 21.1641 141.052 21.0273 140.551 20.7539C140.049 20.4805 139.667 20.1478 139.402 19.7559C138.883 18.9902 138.623 17.8965 138.623 16.4746L138.609 16.1875C138.6 15.987 138.596 15.7637 138.596 15.5176V14.7109C138.596 13.1341 138.468 11.7897 138.213 10.6777C138.122 10.2676 137.876 9.92578 137.475 9.65234ZM154.701 9.2832H154.441C153.658 9.2832 153.015 9.72526 152.514 10.6094C152.021 11.4935 151.775 12.5508 151.775 13.7812V14.5469C151.775 15.9323 152.062 17.1035 152.637 18.0605C153.211 19.0176 153.899 19.4961 154.701 19.4961H154.961C155.663 19.4961 156.273 19.1406 156.793 18.4297C157.322 17.7096 157.586 16.7526 157.586 15.5586L157.613 15.2715L157.627 14.6973V14.5469L157.613 14.3965V14.1094C157.595 13.9089 157.586 13.763 157.586 13.6719C157.586 12.4596 157.299 11.4251 156.725 10.5684C156.15 9.71159 155.476 9.2832 154.701 9.2832ZM154.715 7.46484H155.398C156.21 7.46484 157.044 7.65625 157.9 8.03906C159.532 8.76823 160.653 9.95312 161.264 11.5938C161.574 12.4414 161.729 13.3073 161.729 14.1914V14.4375C161.729 15.3854 161.537 16.3151 161.154 17.2266C160.771 18.138 160.257 18.8945 159.609 19.4961C158.26 20.7174 156.711 21.3281 154.961 21.3281C154.824 21.3281 154.688 21.3236 154.551 21.3145C153.676 21.3145 152.814 21.1413 151.967 20.7949C151.128 20.4395 150.44 19.9701 149.902 19.3867C148.745 18.1107 148.166 16.5111 148.166 14.5879V14.3555L148.18 14.123C148.189 13.2754 148.348 12.4368 148.658 11.6074C149.26 10.0215 150.363 8.85026 151.967 8.09375C152.869 7.67448 153.785 7.46484 154.715 7.46484Z" fill="white"/>
</g>
<defs>
<filter id="filter0_d_56_453" x="0.162109" y="0.738281" width="171.566" height="40.5898" filterUnits="userSpaceOnUse" color-interpolation-filters="sRGB">
<feFlood flood-opacity="0" result="BackgroundImageFix"/>
<feColorMatrix in="SourceAlpha" type="matrix" values="0 0 0 0 0 0 0 0 0 0 0 0 0 0 0 0 0 0 127 0" result="hardAlpha"/>
<feOffset dy="10"/>
<feGaussianBlur stdDeviation="5"/>
<feComposite in2="hardAlpha" operator="out"/>
<feColorMatrix type="matrix" values="0 0 0 0 0 0 0 0 0 0 0 0 0 0 0 0 0 0 1 0"/>
<feBlend mode="normal" in2="BackgroundImageFix" result="effect1_dropShadow_56_453"/>
<feBlend mode="normal" in="SourceGraphic" in2="effect1_dropShadow_56_453" result="shape"/>
</filter>
</defs>
</svg>
